<svg width="133" height="69" viewBox="0 0 133 69" fill="none" xmlns="http://www.w3.org/2000/svg">
<path fill-rule="evenodd" clip-rule="evenodd" d="M0.433507 28.0825C8.82178 57.6238 21.9512 54.8277 29.6101 51.2414C22.316 49.4178 19.763 43.5825 20.3101 38.8414C20.8571 34.1002 24.8689 32.2766 27.7866 31.5472C28.6902 31.3213 29.961 31.3403 31.3067 31.3603C34.3061 31.4051 37.6772 31.4554 38.1807 28.8119C38.7278 22.6119 42.9219 19.1471 45.8396 21.3354C49.1949 23.9613 56.5985 22.9158 59.8808 22.0648C76.3535 17.1413 110.065 7.1118 113.128 6.38238C116.192 5.65297 118.781 8.50984 119.693 10.0295L124.069 9.8471C124.252 8.69219 124.215 6.20003 122.611 5.47061C119.839 4.30355 119.632 1.33726 119.875 0C117.103 2.48001 109.846 3.70786 106.563 4.01178C106.381 4.49806 105.87 5.65297 105.287 6.38238C104.703 7.1118 73.9221 15.1961 58.6044 19.1471C51.1278 20.9707 51.6749 17.3236 53.1337 14.0412C54.5926 10.7589 52.222 2.73531 41.6455 9.66475C30.1355 17.9325 26.8402 16.6884 21.7663 14.7729L21.7662 14.7729C21.1327 14.5338 20.4714 14.2841 19.763 14.0412C13.3806 11.853 -2.84886 12.7648 0.433507 28.0825ZM42.4756 39.2338H45.2532C44.7397 36.0361 42.4056 33.6786 38.0641 33.6786C33.2558 33.6786 30.2214 37.3432 30.2214 42.3616C30.2214 47.4033 32.929 51.0679 37.7607 51.0679C40.2815 51.0679 41.8454 50.1109 42.9658 48.4303H43.0125L43.6193 50.7177H45.5333V41.9648H37.9941V44.2055H42.709C42.6857 46.8664 40.585 48.6871 37.9474 48.6871C34.1428 48.6871 32.9991 45.5126 32.9991 42.3616C32.9991 39.2338 34.4696 36.0594 38.0408 36.0594C40.515 36.0594 42.0555 37.2498 42.4756 39.2338ZM61.0607 45.0225V34.0287H58.3065V45.0225C58.3065 47.5433 57.0461 48.6871 54.4785 48.6871C51.9343 48.6871 50.6739 47.5433 50.6739 45.0225V34.0287H47.8963V45.0225C47.8963 48.6637 49.8336 51.0679 54.4785 51.0679C59.1234 51.0679 61.0607 48.6637 61.0607 45.0225ZM63.7448 34.0287V50.7177H66.5224V34.0287H63.7448ZM73.2606 50.7177H76.0382V36.3862H81.36V34.0287H67.9154V36.3862H73.2606V50.7177ZM90.8685 46.7731L92.2223 50.7177H95.0466L88.9311 34.0287H86.0135L79.8747 50.7177H82.699L84.0528 46.7731H90.8685ZM84.8231 44.4623L87.4606 36.5729H87.5073L90.1216 44.4623H84.8231ZM96.6358 50.7177H99.4134V44.2756H103.498C106.302 44.2756 106.385 47.0754 106.442 49.0033C106.467 49.8363 106.487 50.5065 106.719 50.7177H109.637V50.5544C109.35 50.4638 109.302 49.7191 109.239 48.7283C109.106 46.6552 108.905 43.5047 106.299 43.0151V42.9684C108.213 42.5016 109.403 41.1478 109.403 38.8137C109.403 35.7793 107.186 34.0287 103.755 34.0287H96.6358V50.7177ZM99.4134 36.3862H103.171C104.875 36.3862 106.649 36.7363 106.649 39.1405C106.649 41.568 104.875 41.8947 103.171 41.8947H99.4134V36.3862ZM49.0928 55.9243C49.0928 58.3971 50.9528 58.9441 53.9288 59.4693C57.5176 60.1039 59.3338 61.1543 59.3338 63.9552C59.3338 66.3404 57.43 68.2879 54.082 68.2879C50.6465 68.2879 47.9768 66.5811 47.7799 63.0143H48.4801C48.6771 66.034 50.8215 67.6752 54.082 67.6752C57.1237 67.6752 58.6117 65.9465 58.6336 63.9552C58.6555 61.2855 56.7736 60.5853 53.163 59.9726C50.1651 59.4693 48.3926 58.4846 48.3926 55.9243C48.3926 53.4516 50.5371 52.1606 53.3818 52.1606C56.4672 52.1606 58.546 53.758 58.743 56.6027H58.0427C57.8239 54.2832 56.3359 52.7733 53.3818 52.7733C50.8215 52.7733 49.0928 53.9768 49.0928 55.9243ZM73.9504 57.0185H73.2502C72.8782 54.6333 70.8869 52.7733 68.064 52.7733C63.9501 52.7733 61.6087 55.99 61.6087 60.2352C61.6087 64.5679 63.9939 67.6752 67.9984 67.6752C71.1495 67.6752 73.1627 65.29 73.4909 62.6641H74.1911C73.7754 65.9684 71.3027 68.2879 67.9984 68.2879C63.7094 68.2879 60.9085 65.0712 60.9085 60.2352C60.9085 55.5086 63.6876 52.1606 68.064 52.1606C71.2151 52.1606 73.469 54.1737 73.9504 57.0185ZM76.2876 68.0472V52.4013H76.9878V59.4255H86.9881V52.4013H87.6883V68.0472H86.9881V60.0382H76.9878V68.0472H76.2876ZM104.327 60.2133C104.327 64.918 101.439 68.2879 97.1277 68.2879C92.8169 68.2879 89.9284 64.918 89.9284 60.2133C89.9284 55.5086 92.8169 52.1606 97.1277 52.1606C101.439 52.1606 104.327 55.5086 104.327 60.2133ZM90.6286 60.2133C90.6286 64.6773 93.4296 67.6752 97.1277 67.6752C100.826 67.6752 103.627 64.6773 103.627 60.2133C103.627 55.7493 100.826 52.7733 97.1277 52.7733C93.4296 52.7733 90.6286 55.7493 90.6286 60.2133ZM120.354 60.2133C120.354 64.918 117.466 68.2879 113.155 68.2879C108.844 68.2879 105.956 64.918 105.956 60.2133C105.956 55.5086 108.844 52.1606 113.155 52.1606C117.466 52.1606 120.354 55.5086 120.354 60.2133ZM106.656 60.2133C106.656 64.6773 109.457 67.6752 113.155 67.6752C116.853 67.6752 119.654 64.6773 119.654 60.2133C119.654 55.7493 116.853 52.7733 113.155 52.7733C109.457 52.7733 106.656 55.7493 106.656 60.2133ZM122.595 68.0472V52.4013H123.296V67.4345H132.267V68.0472H122.595Z" fill="#3F3F3F"/>
</svg>
